# xmcd
#
# Track frame offsets:
#	150
#	16369
#	31426
#	45080
#	58975
#	72300
#	85265
#	98192
#	111893
#	126329
#	145820
#	159006
#	173093
#	186022
#
# Disc length: 2659 seconds
#
# Revision: 0
# Processed by: cddbd v1.5.2PL0 Copyright (c) Steve Scherf et al.
# Submitted via: EasyCDDAExtractor 15.0.0.1
#
DISCID=b50a610e
DTITLE=Agnaldo and Carlão dos Teclados - Ao Vivo
DYEAR=1900
DGENRE=
TTITLE0=No Rebolado
TTITLE1=Sabadao
TTITLE2=Vem dancar
TTITLE3=bananao
TTITLE4=Tem que ter forro
TTITLE5=Brega do para
TTITLE6=Vida de caminhoneiro
TTITLE7=Adrenalina da paixao
TTITLE8=Quem e essa mulher
TTITLE9=Forro bodo
TTITLE10=Sempre vou ti amar
TTITLE11=Cara de anjo
TTITLE12=Fonte de deseijo
TTITLE13=Quem sou eu sen voce
EXTD=
EXTT0=
EXTT1=
EXTT2=
EXTT3=
EXTT4=
EXTT5=
EXTT6=
EXTT7=
EXTT8=
EXTT9=
EXTT10=
EXTT11=
EXTT12=
EXTT13=
PLAYORDER=
